<svg width="24" height="24" viewBox="0 0 24 24" fill="none" xmlns="http://www.w3.org/2000/svg">
<path d="M10.1185 10.5511C9.616 10.5511 9.21926 11.0011 9.21926 11.5501C9.21926 12.0991 9.62481 12.5491 10.1185 12.5491C10.6211 12.5491 11.0178 12.0991 11.0178 11.5501C11.0266 11.0011 10.6211 10.5511 10.1185 10.5511ZM13.3365 10.5511C12.834 10.5511 12.4372 11.0011 12.4372 11.5501C12.4372 12.0991 12.8428 12.5491 13.3365 12.5491C13.839 12.5491 14.2358 12.0991 14.2358 11.5501C14.2358 11.0011 13.839 10.5511 13.3365 10.5511Z" fill="white"/>
<path d="M17.6212 3H5.80735C4.8111 3 4 3.828 4 4.854V17.022C4 18.048 4.8111 18.876 5.80735 18.876H15.8051L15.3378 17.211L16.4663 18.282L17.5331 19.29L19.4286 21V4.854C19.4286 3.828 18.6175 3 17.6212 3ZM14.2181 14.754C14.2181 14.754 13.9007 14.367 13.6362 14.025C14.7912 13.692 15.232 12.954 15.232 12.954C14.8705 13.197 14.5267 13.368 14.2181 13.485C13.7773 13.674 13.3541 13.8 12.9398 13.872C12.0934 14.034 11.3176 13.989 10.6563 13.863C10.1538 13.764 9.7218 13.62 9.36033 13.476C9.15755 13.395 8.93714 13.296 8.71673 13.17C8.69029 13.152 8.66384 13.143 8.63739 13.125C8.61975 13.116 8.61094 13.107 8.60212 13.098C8.44343 13.008 8.35527 12.945 8.35527 12.945C8.35527 12.945 8.77845 13.665 9.89812 14.007C9.63363 14.349 9.30743 14.754 9.30743 14.754C7.35902 14.691 6.61845 13.386 6.61845 13.386C6.61845 10.488 7.888 8.139 7.888 8.139C9.15755 7.167 10.3654 7.194 10.3654 7.194L10.4536 7.302C8.86661 7.77 8.13486 8.481 8.13486 8.481C8.13486 8.481 8.32882 8.373 8.65502 8.22C9.59837 7.797 10.3478 7.68 10.6563 7.653C10.7092 7.644 10.7533 7.635 10.8062 7.635C11.344 7.563 11.9523 7.545 12.5871 7.617C13.4247 7.716 14.3239 7.968 15.2408 8.481C15.2408 8.481 14.5443 7.806 13.0456 7.338L13.169 7.194C13.169 7.194 14.3768 7.167 15.6464 8.139C15.6464 8.139 16.9159 10.488 16.9159 13.386C16.9159 13.386 16.1665 14.691 14.2181 14.754Z" fill="white"/>
</svg>
