<svg width="24" height="24" viewBox="0 0 24 24" fill="none" xmlns="http://www.w3.org/2000/svg">
<path fill-rule="evenodd" clip-rule="evenodd" d="M12 3C7.02762 3 3 7.12894 3 12.2264C3 16.3044 5.58011 19.7593 9.15469 20.9827C9.6022 21.0676 9.76794 20.7844 9.76794 20.5353C9.76794 20.3143 9.76242 19.7367 9.7569 18.9663C7.25414 19.5214 6.72375 17.7316 6.72375 17.7316C6.31491 16.6669 5.72376 16.378 5.72376 16.378C4.90608 15.8059 5.78453 15.8173 5.78453 15.8173C6.68507 15.8852 7.16574 16.7688 7.16574 16.7688C7.96684 18.1791 9.27071 17.7713 9.78452 17.5334C9.86739 16.9387 10.0994 16.5309 10.3536 16.2987C8.35911 16.0721 6.25966 15.2792 6.25966 11.745C6.25966 10.7368 6.60773 9.91554 7.18784 9.26987C7.09391 9.03199 6.78452 8.09746 7.27071 6.82875C7.27071 6.82875 8.02762 6.57955 9.74584 7.77461C10.4641 7.57072 11.2321 7.46877 12 7.46311C12.7624 7.46877 13.5359 7.57072 14.2541 7.77461C15.9724 6.57955 16.7293 6.82875 16.7293 6.82875C17.221 8.09746 16.9116 9.03765 16.8177 9.26987C17.3923 9.91554 17.7403 10.7368 17.7403 11.745C17.7403 15.2905 15.6353 16.0665 13.6298 16.2987C13.9503 16.5819 14.2431 17.1483 14.2431 18.0092C14.2431 19.2439 14.2321 20.235 14.2321 20.5409C14.2321 20.7901 14.3923 21.0733 14.8508 20.9827C18.4254 19.7593 21 16.3044 21 12.232C21 7.12894 16.9723 3 12 3Z" fill="white"/>
</svg>
