<svg width="24" height="24" viewBox="0 0 24 24" fill="none" xmlns="http://www.w3.org/2000/svg">
<g clip-path="url(#clip0_7328_1936)">
<path d="M13.1872 12.3054C13.1872 15.1242 10.929 17.4094 8.14321 17.4094C5.35744 17.4094 3.09937 15.1249 3.09937 12.3054C3.09937 9.48589 5.35761 7.20154 8.14321 7.20154C10.9288 7.20154 13.1872 9.48658 13.1872 12.3054Z" fill="white"/>
<path d="M18.7206 12.3051C18.7206 14.9587 17.5914 17.1096 16.1986 17.1096C14.8058 17.1096 13.6766 14.958 13.6766 12.3051C13.6766 9.6522 14.8058 7.50056 16.1986 7.50056C17.5914 7.50056 18.7206 9.6522 18.7206 12.3051Z" fill="white"/>
<path d="M20.9837 12.305C20.9837 14.6824 20.5866 16.6096 20.0967 16.6096C19.6069 16.6096 19.2097 14.6817 19.2097 12.305C19.2097 9.92816 19.6069 8.00029 20.0969 8.00029C20.5869 8.00029 20.9837 9.92764 20.9837 12.305Z" fill="white"/>
</g>
<defs>
<clipPath id="clip0_7328_1936">
<rect width="18" height="10.5" fill="white" transform="translate(3 7)"/>
</clipPath>
</defs>
</svg>
