<svg width="24" height="24" viewBox="0 0 24 24" fill="none" xmlns="http://www.w3.org/2000/svg">
<path d="M21 6.72084C20.3375 7.02199 19.6233 7.21989 18.8834 7.31453C19.6405 6.85851 20.2256 6.13576 20.501 5.26673C19.7868 5.69694 18.9952 5.99809 18.1606 6.17017C17.4809 5.43021 16.5258 5 15.4417 5C13.4197 5 11.7677 6.65201 11.7677 8.6912C11.7677 8.98375 11.8021 9.26769 11.8623 9.53442C8.79924 9.37954 6.0717 7.90822 4.25621 5.67973C3.93786 6.2218 3.75717 6.85851 3.75717 7.52964C3.75717 8.81166 4.40249 9.94742 5.40057 10.5927C4.78968 10.5927 4.2218 10.4207 3.72275 10.1625C3.72275 10.1625 3.72275 10.1625 3.72275 10.1883C3.72275 11.978 4.99618 13.4751 6.6826 13.8107C6.37285 13.8967 6.04589 13.9398 5.71033 13.9398C5.47801 13.9398 5.2457 13.914 5.02199 13.8709C5.48662 15.325 6.83748 16.4092 8.46367 16.435C7.20746 17.4331 5.61568 18.0182 3.87763 18.0182C3.58509 18.0182 3.29254 18.001 3 17.9665C4.6348 19.0163 6.57935 19.6272 8.66157 19.6272C15.4417 19.6272 19.1673 14 19.1673 9.12142C19.1673 8.95794 19.1673 8.80306 19.1587 8.63958C19.8815 8.12333 20.501 7.46941 21 6.72084Z" fill="white"/>
</svg>
